<?xml version="1.0"?>


<svg version="1.1" id="svg1" width="901" height="196" viewBox="0 0 901 196" xmlns:inkscape="http://www.inkscape.org/namespaces/inkscape" xmlns:sodipodi="http://sodipodi.sourceforge.net/DTD/sodipodi-0.dtd" xmlns="http://www.w3.org/2000/svg" xmlns:svg="http://www.w3.org/2000/svg">
  <defs id="defs1"></defs>
  <namedview id="namedview1" pagecolor="#ffffff" bordercolor="#000000" borderopacity="0.25"></namedview>
  <g id="g1">
    <path style="fill:#000000" d="m 537.51464,155.19496 c -4.78736,-2.05002 -5.95412,-4.76294 -5.97769,-13.89915 -0.0192,-7.446 0.22057,-8.69414 1.72769,-8.99298 1.55081,-0.30751 1.75,0.57191 1.75,7.72632 0,6.73999 0.33031,8.40363 2,10.07332 1.1,1.1 2.9,2 4,2 1.1,0 2.9,-0.9 4,-2 1.66667,-1.66667 2,-3.33333 2,-10 0,-7.33333 0.16667,-8 2,-8 1.84285,0 2,0.66667 2,8.48422 0,7.85715 -0.20325,8.70731 -2.75,11.50249 -2.92247,3.20754 -7.45459,4.51692 -10.75,3.10578 z m -50.83333,-0.75916 c -0.36667,-0.36666 -0.66667,-4.19166 -0.66667,-8.5 v -7.83333 h -3 c -2.66667,0 -3,-0.33333 -3,-3 v -3 h 9.56642 9.56642 l -0.31642,2.75 c -0.26366,2.29145 -0.85834,2.80225 -3.56642,3.06336 l -3.25,0.31336 v 8.43664 c 0,8.17172 -0.0733,8.43664 -2.33333,8.43664 -1.28334,0 -2.63334,-0.3 -3,-0.66667 z m 16.33333,0.0759 c 0,-0.96322 8.28401,-19.79913 9.30582,-21.15927 1.82497,-2.42922 4.44045,-1.33989 6.00251,2.5 0.83901,2.0625 3.12651,7.2375 5.08333,11.5 3.31615,7.22353 3.42224,7.75 1.56165,7.75 -1.15885,0 -2.47399,-1.04867 -3.13526,-2.5 -1.02642,-2.25273 -1.71877,-2.5 -7,-2.5 -5.28124,0 -5.97359,0.24727 -7,2.5 -0.97172,2.13267 -4.81805,3.65688 -4.81805,1.90927 z m 15.95481,-8.15927 c -0.0248,-0.4125 -1.07039,-2.70934 -2.32342,-5.10408 l -2.27823,-4.35408 -2.12116,5.10408 -2.12116,5.10408 h 4.44458 c 2.44452,0 4.42425,-0.3375 4.39939,-0.75 z m 40.04519,-2.75 v -11.5 h 5.9349 c 3.2642,0 7.07663,0.43408 8.47207,0.96463 3.00277,1.14165 4.42791,5.46886 2.70811,8.2227 -0.9339,1.49541 -0.86072,2.33773 0.35371,4.07158 2.11256,3.0161 1.91734,5.30344 -0.65735,7.70213 -1.78875,1.66647 -3.52425,2.03896 -9.5,2.03896 h -7.31144 z m 14.31449,6.58551 c 2.15893,-2.15893 -0.62289,-4.55951 -5.66692,-4.8903 l -4.64757,-0.30479 v 3.68484 3.68484 l 4.58696,-0.51701 c 2.52284,-0.28436 5.10022,-1.03027 5.72753,-1.65758 z m -1.4661,-8.97065 c 0.74162,-0.46998 1.18757,-1.70059 0.99101,-2.73469 -0.27943,-1.47006 -1.39152,-1.94665 -5.09839,-2.18496 -4.68654,-0.30129 -4.74101,-0.26969 -4.74101,2.75 0,2.86604 0.23171,3.05384 3.75,3.03948 2.0625,-0.008 4.35678,-0.39985 5.09839,-0.86983 z m 10.64976,11.89096 c 0.34811,-1.0968 2.63187,-6.2718 5.07502,-11.5 3.18635,-6.81858 4.94866,-9.50582 6.23402,-9.50582 1.30909,0 3.10565,2.89663 6.66742,10.75 2.68152,5.9125 5.04827,11.0875 5.25946,11.5 0.21118,0.4125 -0.55224,0.75 -1.69649,0.75 -1.24873,0 -2.53584,-0.99945 -3.21953,-2.5 -1.02642,-2.25273 -1.71877,-2.5 -7,-2.5 -5.28124,0 -5.97359,0.24727 -7,2.5 -1.41189,3.09875 -5.28687,3.55248 -4.3199,0.50582 z m 15.50185,-6.3787 c 0,-0.20509 -0.94643,-2.51245 -2.10318,-5.12748 l -2.10318,-4.75459 -1.89682,4.23668 c -1.04325,2.33017 -1.89682,4.63754 -1.89682,5.12747 0,0.48994 1.8,0.8908 4,0.8908 2.2,0 4,-0.1678 4,-0.37288 z m 17,-0.99343 v -9.51296 l -3.74168,-0.31036 c -2.61495,-0.21691 -3.84155,-0.83735 -4.07333,-2.06037 -0.29713,-1.5679 0.66456,-1.75 9.24169,-1.75 8.90665,0 9.57332,0.13928 9.57332,2 0,1.61492 -0.66667,2 -3.46247,2 h -3.46248 l -0.28752,9.23857 c -0.24489,7.86843 -0.54707,9.28822 -2.03753,9.57333 -1.56749,0.29984 -1.75,-0.65739 -1.75,-9.17821 z m 17,-2.13369 v -11.5 h 8.57332 c 7.62541,0 8.53647,0.19349 8.23996,1.75 -0.26742,1.40383 -1.56771,1.80889 -6.57332,2.04772 -6.17698,0.29471 -6.23996,0.32751 -6.23996,3.25 0,2.94168 0.0216,2.95228 6,2.95228 4.66667,0 6,0.33333 6,1.5 0,1.16667 -1.33333,1.5 -6,1.5 -5.97845,0 -6,0.0106 -6,2.95228 0,2.92249 0.063,2.95529 6.23996,3.25 5.00561,0.23883 6.3059,0.64389 6.57332,2.04772 0.29651,1.55651 -0.61455,1.75 -8.23996,1.75 h -8.57332 z m -557.80682,9.49902 c -7.46244,-1.58391 -18.487349,-7.57883 -24.418809,-13.27802 -6.92063,-6.64962 -11.05631,-13.05323 -13.84782,-21.44171 -2.85057,-8.56596 -2.40692,-24.864165 0.9059,-33.279282 4.32411,-10.983968 15.06853,-22.351591 26.03309,-27.543065 10.460055,-4.9526 14.847212,-5.516143 40.679539,-5.225396 l 23.85235,0.268461 2.82182,10.5 c 5.16025,19.201278 5.07006,17.985379 1.44406,19.46746 -6.9975,2.860136 -7.18296,2.833193 -10.17024,-1.477455 C 113.29476,69.241151 95.774641,63.264669 82.442779,67.766572 69.424107,72.162717 60.855871,81.78717 57.499371,95.784794 c -1.43454,5.982466 -1.53753,8.231096 -0.61648,13.459996 4.5158,25.63657 30.410865,39.11356 52.848639,27.50486 3.62721,-1.87663 9.86316,-7.68785 12.94804,-12.06616 2.03892,-2.89381 2.09658,-2.90776 6.69585,-1.62004 2.55157,0.7144 4.63489,1.80292 4.62961,2.41894 -0.005,0.61602 -2.25527,4.10966 -4.99996,7.76363 -5.77621,7.68982 -15.42881,14.76901 -24.49043,17.96122 -6.793139,2.39308 -23.142167,3.41491 -30.30682,1.89421 z m 152.80682,0.34521 c -17.11361,-2.27457 -36.6648,-13.66845 -48.72635,-28.39632 -6.9751,-8.51699 -7.93268,-10.44885 -6.20888,-12.5259 1.90122,-2.29083 11.48202,-6.53311 13.23513,-5.86038 0.79431,0.30481 2.9579,2.66199 4.80798,5.23816 9.03804,12.58525 21.32284,21.27204 36.39212,25.73349 8.5481,2.53077 30.26498,2.55534 40.5,0.0458 10.83751,-2.65724 20.40535,-7.37426 29.23486,-14.41297 4.25417,-3.39135 7.99305,-6.16608 8.30864,-6.16608 0.31558,0 -0.86784,2.70474 -2.62981,6.01055 -4.10367,7.69927 -15.79789,18.89234 -24.13778,23.10336 -10.8496,5.47824 -17.7746,7.01226 -33.27591,7.37126 -7.7,0.17833 -15.575,0.1149 -17.5,-0.14095 z m 124,-4.84419 v -5.5 h 3.45295 c 4.68551,0 7.89027,-1.61814 9.88178,-4.9895 1.46728,-2.48391 1.66527,-6.9323 1.66527,-37.41478 V 66.102478 h -6.37288 c -9.32641,0 -16.7546,3.68635 -21.24847,10.544866 -1.4254,2.175422 -2.32411,2.455134 -7.88835,2.455134 h -6.27968 l 0.7826,-3.25 c 0.43042,-1.7875 1.95803,-7.686764 3.39469,-13.109476 1.43665,-5.422712 2.61209,-10.035212 2.61209,-10.25 0,-0.214788 20.85009,-0.390524 46.33353,-0.390524 h 46.33353 l 3.16647,12.461797 c 1.74156,6.853989 3.16647,12.928989 3.16647,13.5 0,0.59519 -2.41266,1.038203 -5.65407,1.038203 -5.39011,0 -5.81936,-0.193094 -9.19439,-4.136068 -4.86361,-5.682024 -11.96575,-8.841759 -19.90154,-8.854163 l -6.25,-0.0098 v 35.444233 35.44423 l 2.30884,2.68419 c 1.79203,2.08336 3.47083,2.79584 7.5,3.18299 l 5.19116,0.49881 v 5.37277 5.37277 h -26.5 -26.5 z m -115.16043,-18.9049 c -5.79733,-1.6696 -12.57162,-6.47115 -15.77648,-11.18221 -1.3403,-1.9702 -2.9772,-6.20399 -3.63755,-9.4084 -3.48794,-16.925585 7.55032,-31.26063 25.81222,-33.521515 7.02831,-0.870129 8.17867,0.652114 4.90053,6.484764 -3.32562,5.917141 -2.86718,10.608679 1.43291,14.664192 4.24824,4.006599 8.47188,4.407069 14.4288,1.368077 4.70589,-2.400764 4.47197,-2.38517 6.42857,-0.428571 3.4052,3.405193 1.33209,15.344063 -3.91946,22.571893 -6.11132,8.41116 -19.0123,12.521 -29.66954,9.45177 z m 403.16043,0.59603 c 0,-1.82305 2.74714,-4.38452 4.34343,-4.04987 1.57526,0.33023 1.58537,0.53753 0.1272,2.60874 -1.52333,2.16377 -4.47063,3.11385 -4.47063,1.44113 z M 485.98715,115.39837 c -3.30827,-2.28013 -4.70763,-4.24642 -5.37024,-7.54589 -1.98812,-9.899791 6.35897,-16.875834 16.54201,-13.824919 9.39463,2.814698 10.64008,17.032349 1.88845,21.557989 -3.89108,2.01215 -9.99614,1.92465 -13.06022,-0.18718 z m 10.83893,-5.33485 c 3.57196,-3.32778 2.73426,-9.42287 -1.51722,-11.03928 -3.44631,-1.310283 -6.85418,-0.182965 -8.16875,2.70221 -1.6594,3.64199 -1.39912,5.19328 1.32908,7.92148 2.98894,2.98895 5.46267,3.11197 8.35689,0.41559 z m 14.85523,6.37229 c -0.36667,-0.36666 -0.66667,-5.54166 -0.66667,-11.5 V 94.102478 h 8.5 c 6.88889,0 8.5,0.284314 8.5,1.5 0,1.179487 -1.38889,1.5 -6.5,1.5 h -6.5 v 3.500002 3.5 h 6.07332 c 5.24433,0 6.02787,0.23887 5.74029,1.75 -0.26272,1.38044 -1.54526,1.81333 -6.07333,2.0499 l -5.74028,0.29991 v 4.45009 c 0,4.20316 -1.36467,5.75209 -3.33333,3.78343 z m 28.33333,-9.33333 V 97.102478 h -4 c -2.88889,0 -4,-0.416667 -4,-1.5 0,-1.22807 1.72222,-1.5 9.5,-1.5 7.77778,0 9.5,0.27193 9.5,1.5 0,1.083333 -1.11111,1.5 -4,1.5 h -4 v 10.000002 c 0,8.22222 -0.26667,10 -1.5,10 -1.23333,0 -1.5,-1.77778 -1.5,-10 z m 12.99331,8.75 c -0.004,-0.6875 2.11152,-5.8625 4.70044,-11.5 6.23614,-13.579496 7.38128,-13.679165 13.13894,-1.14357 5.27329,11.48103 5.9252,13.89357 3.75428,13.89357 -0.89642,0 -2.14243,-1.125 -2.76892,-2.5 -1.03612,-2.27404 -1.69757,-2.5 -7.31805,-2.5 -5.62048,0 -6.28193,0.22596 -7.31805,2.5 -1.17346,2.57547 -4.17675,3.47172 -4.18864,1.25 z m 13.80816,-12.77356 c -1.14823,-2.76295 -2.18994,-4.900449 -2.31491,-4.749995 -0.12496,0.150454 -1.16026,2.411055 -2.30065,5.023555 l -2.07345,4.75 h 4.38835 4.38835 z m 15.8652,13.35689 c -0.36667,-0.36666 -0.66667,-5.54166 -0.66667,-11.5 0,-10.166665 0.12308,-10.833332 2,-10.833332 1.85965,0 2,0.666667 2,9.500002 v 9.5 h 6 c 5.33333,0 6,0.22222 6,2 0,1.81818 -0.66667,2 -7.33333,2 -4.03334,0 -7.63334,-0.3 -8,-0.66667 z m 22.02083,0.0208 c -0.37812,-0.37809 -0.6875,-5.56246 -0.6875,-11.5208 0,-10.13131 0.12835,-10.833332 1.98061,-10.833332 1.21235,0 3.42854,1.939449 5.71345,5 2.05307,2.750002 4.04847,5.000002 4.43423,5.000002 0.38575,0 2.35302,-2.25 4.37171,-5.000002 2.1885,-2.98134 4.44342,-5 5.58517,-5 1.77544,0 1.91483,0.837167 1.91483,11.500002 0,9.55556 -0.25362,11.5 -1.5,11.5 -1.20833,0 -1.5,-1.55556 -1.5,-8 0,-4.4 -0.3375,-7.98245 -0.75,-7.961 -0.4125,0.0215 -2.22676,2.04645 -4.03169,4.5 -1.80493,2.45355 -3.6338,4.461 -4.06415,4.461 -0.43035,0 -2.32859,-2.0686 -4.21831,-4.59689 l -3.43585,-4.59689 -0.5,7.76797 c -0.45728,7.10423 -1.51172,9.58075 -3.3125,7.77998 z m 35.61697,-1.31008 c -4.29176,-2.61686 -6.11279,-8.40281 -4.42141,-14.04813 2.89337,-9.657205 17.0734,-10.601553 21.44778,-1.428363 2.08539,4.373083 2.096,6.469453 0.0545,10.750633 -3.06196,6.42099 -10.79277,8.55991 -17.08082,4.72586 z m 12.62295,-4.67895 c 4.45376,-5.662 1.03745,-13.365102 -5.92742,-13.365102 -4.50364,0 -8,3.496352 -8,8.000002 0,7.36285 9.48264,11.01577 13.92742,5.36514 z m 13.07258,-4.8651 c 0,-9.555558 0.25362,-11.500002 1.5,-11.500002 1.22807,0 1.5,1.722222 1.5,9.500002 v 9.5 h 6 c 5.33333,0 6,0.22222 6,2 0,1.82222 -0.66667,2 -7.5,2 h -7.5 z m 24.8552,9.80561 c -2.81233,-1.74514 -5.8552,-7.10082 -5.8552,-10.30561 0,-3.78134 3.30137,-8.91513 6.80095,-10.575786 9.89799,-4.696906 19.50861,3.923782 16.30287,14.623606 -2.09237,6.98372 -10.91848,10.18581 -17.24862,6.25779 z m 12.07222,-4.94047 c 4.45376,-5.66204 1.03745,-13.365142 -5.92742,-13.365142 -4.50364,0 -8,3.496352 -8,8.000002 0,7.36285 9.48264,11.01577 13.92742,5.36514 z m 16.88925,4.91709 c -3.69436,-2.29173 -5.14649,-5.41923 -5.06355,-10.90555 0.12846,-8.496963 8.31612,-13.463726 16.53429,-10.029954 2.70395,1.129781 3.52659,1.974399 3.07337,3.155465 -0.40261,1.049192 -1.18529,1.361393 -2.23982,0.893437 -3.90291,-1.731944 -8.70407,-1.553795 -11.13307,0.413097 -3.40876,2.760245 -3.4666,9.575465 -0.10438,12.298035 4.13473,3.34809 11.11649,2.27177 11.11649,-1.71375 0,-2.07756 -0.47105,-2.39301 -3.57332,-2.39301 -2.8631,0 -3.50728,-0.34783 -3.24101,-1.75 0.2504,-1.31861 1.50102,-1.82514 5.07332,-2.05479 l 4.74101,-0.30479 v 5.52911 c 0,5.11136 -0.22291,5.64438 -2.95034,7.05479 -3.82807,1.97956 -8.85954,1.90055 -12.23299,-0.19209 z m 22.85,1.0511 c -0.36667,-0.36666 -0.66667,-5.54166 -0.66667,-11.5 0,-10.166665 0.12308,-10.833332 2,-10.833332 1.88406,0 2,0.666667 2,11.500002 0,8.91667 -0.29952,11.5 -1.33333,11.5 -0.73334,0 -1.63334,-0.3 -2,-0.66667 z m 14.62634,-2.70362 c -3.32769,-3.0496 -3.67763,-3.86205 -3.67763,-8.53846 0,-4.40597 0.44125,-5.609421 2.99189,-8.16006 3.76052,-3.76052 8.70061,-4.665045 13.81268,-2.529087 3.20037,1.3372 3.6244,1.839527 2.59741,3.076981 -0.89162,1.07433 -1.72777,1.21108 -3.05662,0.499901 -2.91355,-1.559282 -7.541,-1.139456 -10.07723,0.914256 -1.78126,1.442379 -2.33806,2.896669 -2.33806,6.106759 0,3.21009 0.5568,4.66438 2.33806,6.10676 2.53623,2.05371 7.16368,2.47354 10.07723,0.91425 1.3172,-0.70494 2.15837,-0.58241 3.00502,0.43773 0.94948,1.14406 0.59433,1.71739 -1.84534,2.97899 -5.07351,2.6236 -9.64374,2.02602 -13.82741,-1.80802 z m 26.44951,1.60752 c -3.94249,-2.44421 -6.29385,-9.03665 -4.81808,-13.50828 1.81943,-5.512927 5.43359,-8.228952 10.9501,-8.228952 6.14202,0 9.70914,2.378407 11.2424,7.495962 2.51619,8.3983 -2.79378,16.02808 -11.11694,15.97369 -1.925,-0.0126 -4.74087,-0.79216 -6.25748,-1.73242 z m 12.21852,-4.42579 c 2.63361,-2.82685 2.61863,-7.80479 -0.0336,-11.176583 -4.50738,-5.730176 -13.92744,-1.979407 -13.92744,5.545453 0,6.69495 9.42738,10.49744 13.96104,5.63113 z m 24.70563,5.52189 c -0.36667,-0.36666 -0.66667,-5.54166 -0.66667,-11.5 V 94.102478 h 6.94424 c 9.11764,0 12.11438,2.250856 12.72644,9.558842 0.51172,6.10996 -1.0781,9.37922 -5.68459,11.68961 -3.40844,1.7095 -11.99539,2.40891 -13.31942,1.08488 z m 12.69847,-5.40591 c 2.00081,-1.57384 2.63118,-2.95751 2.61955,-5.75 -0.008,-2.02258 -0.34592,-4.17256 -0.75,-4.77772 -1.23998,-1.857038 -4.94676,-3.399702 -8.16895,-3.399702 h -3.06574 v 8.000002 8 h 3.36514 c 1.89023,0 4.51998,-0.9084 6,-2.07258 z m 14.30153,5.40591 c -0.36667,-0.36666 -0.66667,-5.54166 -0.66667,-11.5 V 94.102478 h 8.5 c 6.88889,0 8.5,0.284314 8.5,1.5 0,1.179487 -1.38889,1.5 -6.5,1.5 h -6.5 v 3.000002 3 h 6 c 5.33333,0 6,0.22222 6,2 0,1.77778 -0.66667,2 -6,2 h -6 v 3 3 h 6.5 c 5.83333,0 6.5,0.20513 6.5,2 0,1.82979 -0.66667,2 -7.83333,2 -4.30834,0 -8.13334,-0.3 -8.5,-0.66667 z m -700.94776,-12.23203 -1.7123,-2.89869 8.36385,-7.613639 c 32.01626,-29.144476 64.96658,-43.961787 97.62954,-43.902668 18.94769,0.0343 33.61165,4.263796 48.12447,13.880464 8.49376,5.628247 20.87553,17.684779 20.87553,20.327192 0,2.013427 -2.98396,5.106039 -4.92665,5.106039 -0.69804,0 -5.1626,-2.386336 -9.92126,-5.302969 -15.97069,-9.788621 -28.38415,-13.82532 -48.7776,-15.861857 -10.04712,-1.003328 -13.79812,-0.938176 -24.37449,0.423364 -24.5283,3.15763 -44.89934,12.471092 -74.12231,33.888084 -3.64228,2.66936 -7.25775,4.85338 -8.0344,4.85338 -0.77664,0 -2.18261,-1.30442 -3.12438,-2.8987 z M 696.19659,89.602478 c 1.01647,-2.2309 4.86633,-3.638529 4.78625,-1.75 -0.0674,1.589165 -2.76391,4.25 -4.307,4.25 -1.3633,0 -1.43882,-0.393966 -0.47925,-2.5 z M 484.72189,76.086841 c -5.12174,-4.028761 -5.83171,-12.936259 -1.41442,-17.745599 2.8557,-3.109141 8.33775,-4.455663 12.95257,-3.181452 2.02528,0.559208 3.96768,1.478436 4.31643,2.042728 0.95921,1.552045 -2.68202,5.17977 -3.9382,3.923589 -0.563,-0.562996 -2.48311,-1.023629 -4.26693,-1.023629 -5.70305,0 -8.44179,6.914906 -4.3567,11 2.20039,2.200392 6.94339,2.656613 8.75762,0.842382 0.87682,-0.876825 1.53174,-0.847124 2.7,0.122444 0.84831,0.704035 1.54238,1.737854 1.54238,2.297376 0,3.91724 -11.90271,5.175369 -16.29275,1.722161 z M 508.01464,66.64292 V 55.102478 h 8 c 6.44444,0 8,0.291667 8,1.5 0,1.166667 -1.33333,1.5 -6,1.5 -5.97745,0 -6,0.01109 -6,2.950096 0,2.889345 0.11821,2.956272 5.74028,3.25 4.52807,0.236571 5.81061,0.669463 6.07333,2.049904 0.28758,1.511128 -0.49596,1.75 -5.74029,1.75 -6.05965,0 -6.07332,0.0066 -6.07332,2.952283 0,2.923043 0.0619,2.955231 6.25,3.25 4.75657,0.226578 6.25,0.65614 6.25,1.797717 0,1.188651 -1.71242,1.560286 -8.25,1.790442 l -8.25,0.290443 z m 24,0.03288 c 0,-14.420861 0.96664,-14.826803 9.25,-3.884542 l 5.75,7.595716 v -7.642248 c 0,-6.975581 0.17447,-7.642248 2,-7.642248 1.88406,0 2,0.666667 2,11.5 0,14.202965 -0.69319,14.506196 -8.72621,3.817214 l -5.77379,-7.682787 -0.5,7.423363 c -0.40659,6.036513 -0.82694,7.485527 -2.25,7.75611 -1.58503,0.30138 -1.75,-0.758268 -1.75,-11.240576 z m 32.78701,1.742875 -0.28701,-9.816197 -3.75,-0.310365 c -2.45306,-0.203025 -3.75,-0.808265 -3.75,-1.75 0,-1.15182 1.89926,-1.439635 9.5,-1.439635 7.77778,0 9.5,0.27193 9.5,1.5 0,1.044632 -1.05153,1.5 -3.46379,1.5 h -3.46379 l -0.28621,9.738416 c -0.24283,8.262347 -0.54585,9.788097 -1.9992,10.066196 -1.50809,0.288574 -1.74732,-0.846375 -2,-9.488415 z m 17.21299,-1.816197 v -11.5 h 6.77749 c 7.51137,0 10.61561,1.445792 11.60988,5.407273 0.83398,3.322823 -0.88735,7.472206 -3.50082,8.438993 -2.10236,0.777711 -2.08387,0.859406 0.98545,4.355171 3.64667,4.153322 3.80882,4.798563 1.20592,4.798563 -1.05714,0 -3.46281,-1.8 -5.34592,-4 -2.02782,-2.369049 -4.30215,-4 -5.57793,-4 -1.84642,0 -2.15407,0.571299 -2.15407,4 0,3.333333 -0.33333,4 -2,4 -1.88406,0 -2,-0.666667 -2,-11.5 z m 13.74036,-1.81179 c 3.23228,-3.23228 -0.33827,-6.641525 -6.99036,-6.674555 -2.60614,-0.01294 -2.75,0.228641 -2.75,4.618014 v 4.631669 l 4.13758,-0.554966 c 2.27567,-0.305232 4.79692,-1.214305 5.60278,-2.020162 z m 15.62668,11.539554 c -3.12091,-2.528033 -4.36704,-5.531952 -4.36704,-10.527164 0,-5.552094 2.74513,-9.285609 7.83515,-10.656209 9.00881,-2.425822 15.65112,3.119303 14.84899,12.396218 -0.59076,6.832448 -4.65108,10.569088 -11.44992,10.537155 -2.96792,-0.01394 -5.53001,-0.666851 -6.86718,-1.75 z m 12.88296,-4.381189 c 4.18973,-4.951402 0.325,-13.846575 -6.01598,-13.846575 -4.41106,0 -7.23402,3.27171 -7.23402,8.383968 0,7.833853 8.33562,11.270399 13.25,5.462607 z m -475.25,1.426068 c -1.375,-0.250246 -3.35105,-1.201464 -4.39123,-2.113818 -5.16127,-4.527021 -7.54636,-18.095351 -3.78003,-21.503837 4.09272,-3.703862 8.57225,-1.587581 15.61542,7.377253 9.54041,12.143414 6.49926,18.778066 -7.44416,16.240402 z M 170.67082,57.68284 c -6.72324,-2.972214 -15.45602,-14.484921 -14.13779,-18.638295 1.08185,-3.408615 3.92203,-4.150557 9.90634,-2.587838 9.56646,2.498152 18.57527,10.365198 18.57527,16.221074 0,5.121861 -7.86878,7.867553 -14.34382,5.005059 z m 25.26526,-8.987774 c -7.02571,-4.774095 -12.50961,-14.974028 -9.80364,-18.234533 3.20762,-3.864943 20.88139,0.65869 24.5704,6.288837 2.15256,3.285221 2.04219,9.888557 -0.20682,12.373687 -2.63421,2.910768 -9.96357,2.69532 -14.55994,-0.427991 z" id="path1"></path>
  </g>
</svg>